<svg id="Layer_1" enable-background="new 0 0 512 512" height="512" viewBox="0 0 512 512" width="512" xmlns="http://www.w3.org/2000/svg"><g><path d="m26.806 353.713 17.965 37.458c18.856 32.006 44.771 59.349 75.615 79.888h271.229c30.843-20.539 56.759-47.882 75.615-79.888l17.965-37.457c10.205-26.959 15.808-56.181 15.808-86.715 0-135.311-109.691-245.002-245.002-245.002s-245.003 109.69-245.003 245.001c0 30.534 5.602 59.756 15.808 86.715z" fill="#816ae2"/><path d="m441.617 267.427c.09 4.928-.397 9.975-.924 13.34-2.487 10.96-6.077 20.502-10.669 28.361-2.082 3.563-4.68 6.803-7.721 9.627l-.389.362v2.455c0 2.544.989 4.897 2.672 7.064 9.423-.57 17.435-2.478 23.749-4.653 7.601-2.618 10.928-11.628 6.776-18.512-9.779-16.208-8.321-38.044-8.321-38.044z" fill="#2a428c"/><path d="m455.109 305.472c-.917-1.521-1.736-3.091-2.466-4.688-11.381 6.602-15.929-2.752-15.929-2.752s-.294-.431-.833-1.233c-1.72 4.47-3.674 8.592-5.858 12.329-2.082 3.563-4.68 6.802-7.721 9.627l-.389.362v2.455c0 2.544.989 4.897 2.672 7.064 9.423-.57 17.435-2.478 23.749-4.653 7.601-2.617 10.928-11.628 6.775-18.511z" fill="#1c2e7a"/><path d="m359.321 323.984c6.314 2.174 14.326 4.083 23.749 4.653 1.684-2.167 2.672-4.52 2.672-7.064v-3.014l-.373-.36c-2.783-2.687-5.182-5.738-7.129-9.069-4.595-7.864-8.184-17.403-10.667-28.35-.544-3.174-1.035-8.304-.926-13.351h-5.781s1.457 21.836-8.321 38.044c-4.153 6.882-.825 15.893 6.776 18.511z" fill="#1c2e7a"/><path d="m145.94 267.427c.09 4.928-.397 9.975-.924 13.34-2.487 10.96-6.077 20.502-10.669 28.361-2.082 3.563-4.68 6.803-7.721 9.627l-.389.362v2.455c0 2.544.989 4.897 2.672 7.064 9.423-.57 17.435-2.478 23.749-4.653 7.601-2.618 10.928-11.628 6.775-18.512-9.779-16.208-8.322-38.044-8.322-38.044z" fill="#2a428c"/><path d="m159.433 305.472c-.917-1.521-1.736-3.091-2.466-4.688-11.381 6.602-15.929-2.752-15.929-2.752s-.294-.431-.833-1.233c-1.72 4.47-3.674 8.592-5.858 12.329-2.083 3.563-4.68 6.802-7.722 9.627l-.389.362v2.455c0 2.544.989 4.897 2.672 7.064 9.423-.57 17.435-2.478 23.749-4.653 7.601-2.617 10.928-11.628 6.776-18.511z" fill="#1c2e7a"/><path d="m63.644 323.984c6.314 2.174 14.326 4.083 23.749 4.653 1.684-2.167 2.672-4.52 2.672-7.064v-3.014l-.373-.36c-2.784-2.687-5.182-5.738-7.129-9.069-4.595-7.864-8.184-17.403-10.667-28.35-.544-3.174-1.035-8.304-.926-13.351h-5.78s1.457 21.836-8.321 38.044c-4.154 6.882-.826 15.893 6.775 18.511z" fill="#1c2e7a"/><path d="m366.451 340.551c6.621 11.331 16.647 20.143 28.995 25.485 5.531 2.392 11.872 2.392 17.402 0 12.348-5.343 22.375-14.155 28.995-25.485.321-.549.636-1.108.949-1.669-10.318-4.102-19.647-9.844-19.647-17.279 0-2.683 0-1.88 0-3.617-4.679 4.183-12.702 9.512-19.31 9.672-6.608-.16-14.632-5.489-19.31-9.672 0 4.988 1.324 10.993-14.355 18.605-1.519.738-3.126 1.439-4.776 2.104.349.625.7 1.246 1.057 1.856z" fill="#fcad6d"/><path d="m384.526 317.986c0 4.989 1.324 10.993-14.355 18.605-1.519.738-3.126 1.439-4.776 2.104.348.625.699 1.246 1.056 1.856 4.444 7.605 10.428 14.069 17.613 19.117 13.411-9.153 17.896-22.867 19.364-32.04-6.528-.359-14.319-5.544-18.902-9.642z" fill="#fd995b"/><path d="m485.194 353.713c-5.837-4.636-11.959-6.418-15.476-7.094-1.462-.394-15.355-3.034-27.589-8.003-.354.637-.712 1.269-1.075 1.891-6.483 11.095-16.301 19.724-28.393 24.956-5.415 2.342-11.625 2.342-17.041 0-12.092-5.232-21.91-13.861-28.393-24.956-.399-.684-.793-1.376-1.182-2.078-12.54 5.17-28.027 8.173-28.092 8.19-5.675 1.09-18.129 5.053-25.225 19.244-3.123 6.246-5.11 15.12-6.25 25.307h160.749c7.001-11.88 13.025-24.402 17.967-37.457z" fill="#4fabf7"/><path d="m379.696 362.315c1.755-.933 3.376-1.943 4.889-3.008-7.085-4.955-12.983-11.313-17.358-18.799-.399-.684-.793-1.376-1.182-2.078-12.54 5.17-28.027 8.173-28.092 8.19-5.675 1.09-18.129 5.053-25.225 19.244-3.123 6.246-5.11 15.12-6.25 25.307h39.525c2.349-22.763 11.524-17.071 33.693-28.856z" fill="#1886ea"/><path d="m70.668 340.558c6.64 11.364 16.696 20.203 29.081 25.561 5.547 2.399 11.908 2.399 17.454 0 12.385-5.358 22.441-14.197 29.081-25.561.315-.539.624-1.087.932-1.638-10.356-4.104-19.741-9.858-19.741-17.317 0-2.683 0-1.88 0-3.617-4.679 4.183-12.702 9.512-19.31 9.672-6.608-.16-14.632-5.489-19.31-9.672 0 4.988 1.324 10.993-14.355 18.605-1.548.751-3.186 1.465-4.869 2.141.342.615.686 1.225 1.037 1.826z" fill="#fcad6d"/><path d="m108.164 327.658c-6.608-.16-14.632-5.489-19.31-9.672 0 4.989 1.324 10.993-14.355 18.605-1.548.752-3.186 1.465-4.869 2.142.343.614.687 1.224 1.038 1.825 4.663 7.981 11.017 14.709 18.673 19.867.241-.108.483-.216.725-.33 14.98-7.053 18.025-23.16 18.476-32.464-.126.007-.254.024-.378.027z" fill="#fd995b"/><path d="m199.27 365.864c-7.096-14.192-19.55-18.155-25.225-19.244-1.462-.394-15.355-3.034-27.589-8.003-.354.637-.712 1.269-1.075 1.891-6.483 11.095-16.301 19.724-28.393 24.956-5.415 2.342-11.625 2.342-17.041 0-12.092-5.232-21.91-13.861-28.393-24.956-.399-.684-.793-1.376-1.181-2.078-12.541 5.17-28.027 8.173-28.092 8.19-3.518.675-9.64 2.458-15.476 7.093 4.942 13.056 10.966 25.577 17.965 37.458h160.749c-1.139-10.187-3.126-19.061-6.249-25.307z" fill="#4ce088"/><path d="m48.535 391.171c2.005-31.757 21.007-21.411 41.53-31.075.002-.001.004-.002.006-.003-7.602-5.061-13.905-11.695-18.516-19.585-.399-.684-.793-1.376-1.181-2.078-12.541 5.17-28.027 8.173-28.092 8.19-3.518.675-9.64 2.458-15.476 7.093 4.942 13.056 10.966 25.577 17.965 37.458z" fill="#30c16b"/><g><path d="m249.753 55.651c0-12.884 10.541-23.425 23.425-23.425h111.532v-8.801c0-12.884-10.542-23.425-23.426-23.425h-121.108c-12.884 0-23.425 10.541-23.425 23.425v96.161c0 12.884 10.541 23.425 23.425 23.425h9.577z" fill="#4fabf7"/><path d="m307.017 0h-66.841c-12.884 0-23.425 10.541-23.425 23.425v96.161c0 12.884 10.541 23.425 23.425 23.425h9.577v-87.36c0-12.884 10.541-23.425 23.425-23.425h33.342c.296-.965.497-1.495.497-1.495-16.619-16.619 0-30.731 0-30.731z" fill="#1886ea"/><path d="m392.792 30.731h-121.109c-12.884 0-23.425 10.541-23.425 23.425v96.161c0 12.884 10.541 23.425 23.425 23.425 3.293 0 5.118 3.782 3.104 6.387-2.145 2.776-4.551 5.364-7.221 7.716-4.982 4.388-2.179 13.385 4.138 13.365 16.056-.05 31.104-8.2 41.345-21.475 2.878-3.731 7.259-5.994 11.971-5.994h67.77c12.884 0 23.425-10.541 23.425-23.425v-96.16c.002-12.884-10.539-23.425-23.423-23.425z" fill="#e9efff"/><path d="m271.683 30.731c-12.884 0-23.425 10.541-23.425 23.425v96.161c0 12.884 10.541 23.425 23.425 23.425 3.293 0 5.118 3.782 3.104 6.387-2.145 2.776-4.551 5.364-7.221 7.716-4.982 4.388-2.179 13.385 4.138 13.365 16.056-.05 31.104-8.2 41.345-21.475 2.878-3.731 7.259-5.994 11.971-5.994h30.259c-36.4-21.267-20.405-58.741-20.405-58.741l-4.757-21.459c-38.402-22.514-23.101-62.811-23.101-62.811h-35.333z" fill="#bec8f7"/><ellipse cx="291.716" cy="104.799" fill="#1886ea" rx="11.257" ry="11.257" transform="matrix(.973 -.231 .231 .973 -16.314 70.178)"/><ellipse cx="330.119" cy="104.799" fill="#1886ea" rx="11.257" ry="11.257" transform="matrix(.973 -.231 .231 .973 -15.276 79.044)"/><ellipse cx="368.521" cy="104.799" fill="#4fabf7" rx="11.257" ry="11.257" transform="matrix(.707 -.707 .707 .707 33.834 291.279)"/></g><path d="m317.428 327.931c.146 8.01-.645 16.214-1.501 21.685-4.042 17.816-9.878 33.327-17.343 46.102-3.385 5.792-7.608 11.058-12.551 15.65l-.633.588v3.99c0 4.136 1.607 7.961 4.344 11.483 15.318-.926 28.34-4.029 38.605-7.563 12.356-4.255 17.764-18.902 11.014-30.091-15.896-26.348-13.527-61.842-13.527-61.842h-8.408z" fill="#2a428c"/><path d="m339.361 389.774c-1.491-2.472-2.822-5.024-4.008-7.62-18.5 10.732-25.893-4.474-25.893-4.474s-.478-.701-1.354-2.004c-2.795 7.266-5.972 13.967-9.522 20.042-3.385 5.792-7.608 11.058-12.551 15.65l-.633.588v3.99c0 4.136 1.607 7.961 4.343 11.483 15.318-.926 28.34-4.029 38.605-7.563 12.355-4.256 17.763-18.903 11.013-30.092z" fill="#1c2e7a"/><path d="m183.653 419.865c10.264 3.534 23.287 6.637 38.605 7.563 2.737-3.522 4.344-7.347 4.344-11.483v-4.9l-.606-.585c-4.525-4.368-8.424-9.328-11.588-14.742-7.469-12.784-13.303-28.289-17.339-46.084-.884-5.16-1.683-13.499-1.506-21.702h-9.397s2.369 35.495-13.527 61.842c-6.75 11.189-1.341 25.836 11.014 30.091z" fill="#1c2e7a"/><g><path d="m292.388 225.642c-9.524-4.914-21.366-8.323-35.892-8.323s-26.368 3.409-35.892 8.323c-20.848 10.755-33.695 32.113-33.695 55.158v28.428l.001.009c3.288-.077 6.926 1 9.269 2.562.864-2.825 2.046-5.272 3.643-7.072 1.438-1.62 2.34-3.626 2.404-5.77.245-8.207 2.398-27.601 16.85-35.025 4.026-2.068 8.946-.49 11.207 3.431 8.705 15.093 29.011 34.982 74.169 26.506 3.203-.601 6.212 1.78 6.312 5.037.001.017.001.034.002.051.064 2.144.966 4.15 2.404 5.77 1.597 1.8 2.779 4.247 3.643 7.072 2.343-1.562 5.981-2.639 9.269-2.562l.001-.009v-28.428c-.001-23.045-12.847-44.402-33.695-55.158z" fill="#2a428c"/></g><path d="m255.627 288.801c-22.381-42.758 19.669-69.397 19.669-69.397-5.697-1.318-11.946-2.084-18.8-2.084-14.526 0-26.368 3.409-35.892 8.323-20.848 10.755-33.695 32.113-33.695 55.158v28.428l.001.009c3.288-.077 6.926 1 9.269 2.562.864-2.825 2.046-5.272 3.643-7.072 1.438-1.62 2.34-3.626 2.404-5.77.245-8.207 2.398-27.601 16.85-35.025 4.026-2.068 8.946-.49 11.207 3.43 4.706 8.159 12.814 17.712 26.395 23.436-.352-.667-.703-1.333-1.051-1.998z" fill="#1c2e7a"/><path d="m195.606 349.912s-3.774-23.887.573-38.112c-3.944-2.629-11.565-3.913-14.992-.562-7.017 6.86-1.876 17.22.585 23.763.755 2.009 1.243 4.041 1.463 6.078.479 4.424 2.877 10.899 12.823 10.746-.151-.638-.305-1.265-.452-1.913z" fill="#fd995b"/><path d="m331.805 311.237c-3.427-3.351-11.048-2.067-14.992.562 4.347 14.225.573 38.112.573 38.112-.147.648-.301 1.275-.451 1.913 9.945.153 12.344-6.322 12.823-10.746.22-2.036.708-4.068 1.463-6.078 2.459-6.543 7.601-16.902.584-23.763z" fill="#fcad6d"/><g><path d="m426.212 204.501c-5.859-3.023-13.144-5.12-22.08-5.12s-16.222 2.097-22.08 5.12c-12.825 6.617-20.729 19.755-20.729 33.932v17.488l.001.006c2.023-.047 4.261.615 5.702 1.576.531-1.738 1.258-3.243 2.241-4.351.884-.997 1.44-2.23 1.479-3.55.151-5.049 1.476-16.98 10.366-21.547 2.477-1.272 5.503-.302 6.895 2.111 5.355 9.285 17.847 21.52 45.627 16.306 1.97-.37 3.822 1.095 3.883 3.099 0 .01.001.021.001.031.039 1.319.594 2.553 1.479 3.55.983 1.107 1.71 2.613 2.241 4.351 1.441-.961 3.679-1.624 5.702-1.576l.001-.006v-17.488c0-14.177-7.903-27.316-20.729-33.932z" fill="#2a428c"/></g><path d="m403.598 243.355c-13.769-26.304 12.1-42.692 12.1-42.692-3.505-.811-7.349-1.282-11.566-1.282-8.936 0-16.221 2.097-22.08 5.12-12.825 6.617-20.729 19.755-20.729 33.932v17.488l.001.006c2.023-.047 4.261.615 5.702 1.576.531-1.738 1.258-3.243 2.241-4.351.885-.997 1.44-2.23 1.479-3.55.151-5.049 1.475-16.98 10.366-21.547 2.477-1.272 5.503-.302 6.895 2.11 2.895 5.019 7.883 10.896 16.238 14.417-.217-.408-.433-.818-.647-1.227z" fill="#1c2e7a"/><path d="m366.674 280.949s-2.322-14.695.352-23.446c-2.427-1.617-7.115-2.407-9.223-.346-4.317 4.22-1.154 10.593.36 14.619.465 1.236.765 2.486.9 3.739.295 2.721 1.77 6.705 7.888 6.611-.092-.392-.187-.778-.277-1.177z" fill="#fd995b"/><path d="m450.461 257.158c-2.109-2.061-6.797-1.272-9.223.346 2.674 8.751.352 23.446.352 23.446-.09.399-.185.784-.277 1.177 6.118.094 7.594-3.889 7.888-6.611.135-1.253.435-2.503.9-3.739 1.514-4.026 4.677-10.399.36-14.619z" fill="#fcad6d"/><path d="m437.823 249.594c-.019-.642-.06-1.418-.135-2.286-.226-.326-.495-.624-.811-.878-.958-.771-2.205-1.082-3.413-.856-26.49 4.971-38.909-5.883-44.667-15.864-1.051-1.823-2.873-2.921-4.804-3.101-1.635.453-3.136 1.132-4.5 2.04-7.762 5.168-8.917 16.369-9.054 20.945-.036 1.202-.521 2.363-1.403 3.356-4.86 5.477-3.796 21.478-2.662 28.066 2.511 11.084 6.149 20.749 10.81 28.727 4.732 8.099 11.899 14.398 20.725 18.217 3.953 1.71 8.486 1.71 12.439 0 8.826-3.819 15.993-10.118 20.725-18.217 4.661-7.976 8.298-17.641 10.815-28.747 1.089-6.925 2.249-22.507-2.667-28.046-.877-.993-1.362-2.154-1.398-3.356z" fill="#f9ba8f"/><path d="m409.673 309.744c-4.661-7.978-8.299-17.643-10.81-28.727-1.134-6.588-2.198-22.589 2.662-28.066.882-.993 1.367-2.154 1.403-3.356.045-1.51.203-3.742.67-6.239-7.271-3.335-11.888-8.6-14.799-13.645-1.051-1.823-2.873-2.921-4.804-3.101-1.635.453-3.136 1.132-4.5 2.04-7.762 5.168-8.917 16.369-9.054 20.945-.036 1.203-.521 2.363-1.403 3.356-4.86 5.477-3.796 21.478-2.662 28.066 2.511 11.084 6.149 20.749 10.81 28.727 4.732 8.099 11.899 14.398 20.725 18.217 3.953 1.71 8.486 1.71 12.439 0 3.644-1.577 7-3.582 10.023-5.956-4.298-3.377-7.922-7.506-10.7-12.261z" fill="#fcad6d"/><g><path d="m130.535 204.501c-5.859-3.023-13.144-5.12-22.08-5.12s-16.221 2.097-22.08 5.12c-12.825 6.617-20.729 19.755-20.729 33.932v17.488l.001.006c2.023-.047 4.261.615 5.702 1.576.531-1.738 1.258-3.243 2.241-4.351.884-.997 1.44-2.23 1.479-3.55.151-5.049 1.476-16.98 10.366-21.547 2.477-1.272 5.503-.302 6.895 2.111 5.355 9.285 17.847 21.52 45.627 16.306 1.97-.37 3.822 1.095 3.883 3.099 0 .01.001.021.001.031.039 1.319.594 2.553 1.479 3.55.983 1.107 1.71 2.613 2.241 4.351 1.441-.961 3.679-1.624 5.702-1.576l.001-.006v-17.488c0-14.177-7.903-27.316-20.729-33.932z" fill="#2a428c"/></g><path d="m107.921 243.355c-13.769-26.304 12.1-42.692 12.1-42.692-3.505-.811-7.349-1.282-11.566-1.282-8.936 0-16.222 2.097-22.08 5.12-12.825 6.617-20.729 19.755-20.729 33.932v17.488l.001.006c2.023-.047 4.261.615 5.702 1.576.531-1.738 1.258-3.243 2.241-4.351.885-.997 1.44-2.23 1.479-3.55.151-5.049 1.475-16.98 10.366-21.547 2.477-1.272 5.503-.302 6.895 2.11 2.895 5.019 7.883 10.896 16.238 14.417-.217-.408-.433-.818-.647-1.227z" fill="#1c2e7a"/><path d="m70.997 280.949s-2.322-14.695.352-23.446c-2.426-1.617-7.115-2.407-9.223-.346-4.317 4.22-1.154 10.593.36 14.619.465 1.236.765 2.486.9 3.739.295 2.721 1.77 6.705 7.888 6.611-.092-.392-.187-.778-.277-1.177z" fill="#fd995b"/><path d="m154.784 257.158c-2.109-2.061-6.797-1.272-9.223.346 2.674 8.751.352 23.446.352 23.446-.09.399-.185.784-.277 1.177 6.118.094 7.594-3.889 7.888-6.611.135-1.253.435-2.503.9-3.739 1.514-4.026 4.677-10.399.36-14.619z" fill="#fcad6d"/><path d="m142.146 249.594c-.019-.642-.06-1.418-.135-2.286-.226-.326-.495-.624-.811-.878-.958-.771-2.205-1.082-3.412-.856-26.49 4.971-38.909-5.883-44.667-15.864-1.051-1.823-2.873-2.921-4.804-3.101-1.635.453-3.136 1.132-4.5 2.04-7.762 5.168-8.917 16.369-9.054 20.945-.036 1.202-.521 2.363-1.403 3.356-4.861 5.477-3.796 21.478-2.662 28.066 2.511 11.084 6.149 20.749 10.81 28.727 4.732 8.099 11.899 14.398 20.725 18.217 3.953 1.71 8.486 1.71 12.439 0 8.826-3.819 15.993-10.118 20.725-18.217 4.661-7.976 8.299-17.641 10.815-28.747 1.089-6.925 2.249-22.507-2.667-28.046-.878-.993-1.363-2.154-1.399-3.356z" fill="#f9ba8f"/><path d="m113.996 309.744c-4.661-7.978-8.299-17.643-10.81-28.727-1.134-6.588-2.198-22.589 2.662-28.066.882-.993 1.367-2.154 1.403-3.356.045-1.51.203-3.742.67-6.239-7.271-3.335-11.888-8.6-14.799-13.645-1.051-1.823-2.873-2.921-4.804-3.101-1.635.453-3.136 1.132-4.5 2.04-7.762 5.168-8.917 16.369-9.054 20.945-.036 1.203-.521 2.363-1.403 3.356-4.861 5.477-3.796 21.478-2.662 28.066 2.511 11.084 6.149 20.749 10.81 28.727 4.732 8.099 11.899 14.398 20.725 18.217 3.953 1.71 8.486 1.71 12.439 0 3.644-1.577 7-3.582 10.023-5.956-4.298-3.377-7.921-7.506-10.7-12.261z" fill="#fcad6d"/><path d="m193.561 446.834c11.057 18.923 27.803 33.641 48.426 42.564 9.237 3.995 19.828 3.995 29.064 0 20.623-8.923 37.369-23.641 48.426-42.564.431-.737.852-1.491 1.275-2.241-17.331-6.699-33.372-16.217-33.372-28.647 0-4.361 0-3.055 0-5.878-7.603 6.798-20.642 15.458-31.381 15.718-10.739-.26-23.778-8.92-31.381-15.718 0 8.107 2.152 17.864-23.328 30.236-2.902 1.409-6 2.736-9.179 3.981.481.854.961 1.71 1.45 2.549z" fill="#fcad6d"/><path d="m256 425.785c-10.739-.26-23.778-8.92-31.381-15.718 0 8.107 2.152 17.864-23.328 30.236-2.902 1.409-6 2.736-9.179 3.981.48.855.96 1.711 1.45 2.549 7.5 12.835 17.623 23.728 29.791 32.197.646-.448 1.298-.909 1.958-1.386 22.683-16.384 29.6-36.941 31.288-51.902-.199.011-.402.038-.599.043z" fill="#fd995b"/><path d="m318.231 443.594c-.576 1.035-1.157 2.061-1.748 3.072-10.536 18.031-26.492 32.055-46.142 40.556-8.8 3.807-18.892 3.807-27.693 0-19.65-8.501-35.606-22.525-46.142-40.556-.649-1.111-1.289-2.236-1.92-3.376-20.38 8.401-45.547 13.283-45.652 13.309-6.405 1.23-18.123 4.719-28.549 14.458 38.834 25.861 85.46 40.943 135.615 40.943s96.781-15.082 135.614-40.942c-10.426-9.74-22.144-13.229-28.549-14.459-2.376-.639-24.952-4.929-44.834-13.005z" fill="#fc90ce"/><path d="m179.456 499.796c8.56-6.221 23.229-5.809 45.854-22.151h.001c-11.783-8.111-21.571-18.6-28.804-30.978-.649-1.111-1.289-2.236-1.92-3.376-20.38 8.401-45.547 13.283-45.652 13.309-6.405 1.23-18.123 4.719-28.549 14.458 18.135 12.077 37.97 21.801 59.07 28.738z" fill="#f964b2"/><path d="m311.262 298.943c-.032-1.044-.097-2.305-.219-3.716-.367-.529-.804-1.014-1.318-1.427-1.558-1.253-3.584-1.759-5.547-1.391-43.059 8.081-63.247-9.563-72.607-25.788-1.709-2.964-4.67-4.749-7.808-5.04-2.657.737-5.098 1.841-7.315 3.317-12.617 8.401-14.495 26.608-14.717 34.046-.058 1.955-.846 3.841-2.28 5.456-7.901 8.903-6.171 34.914-4.327 45.622 4.082 18.018 9.995 33.729 17.573 46.697 7.692 13.165 19.342 23.404 33.69 29.612 6.426 2.779 13.795 2.779 20.22 0 14.347-6.207 25.997-16.447 33.69-29.612 7.576-12.965 13.489-28.676 17.58-46.729 1.771-11.257 3.656-36.585-4.335-45.59-1.434-1.616-2.222-3.503-2.28-5.457z" fill="#f9ba8f"/><path d="m265.502 396.718c-7.577-12.969-13.49-28.679-17.572-46.697-1.844-10.709-3.574-36.719 4.327-45.622 1.434-1.615 2.222-3.501 2.28-5.456.073-2.454.33-6.083 1.09-10.142-11.82-5.421-19.325-13.979-24.056-22.18-1.709-2.964-4.67-4.749-7.808-5.04-2.657.737-5.098 1.841-7.315 3.316-12.617 8.401-14.495 26.608-14.717 34.046-.058 1.955-.846 3.841-2.28 5.456-7.901 8.903-6.171 34.913-4.327 45.622 4.082 18.018 9.995 33.729 17.573 46.697 7.693 13.165 19.342 23.404 33.69 29.612 6.426 2.779 13.795 2.779 20.22 0 5.923-2.563 11.378-5.823 16.293-9.682-6.991-5.489-12.881-12.2-17.398-19.93z" fill="#fcad6d"/></g></svg>